<svg xmlns="http://www.w3.org/2000/svg" xmlns:xlink="http://www.w3.org/1999/xlink" width="300" zoomAndPan="magnify" viewBox="0 0 224.87999 112.499997" height="150" preserveAspectRatio="xMidYMid meet" version="1.0"><defs><g/></defs><g fill="#2d372b" fill-opacity="1"><g transform="translate(0.446635, 99.811213)"><g><path d="M 134.265625 -89.6875 L 134.265625 -87.234375 C 132.585938 -87.109375 131.175781 -86.644531 130.03125 -85.84375 C 128.882812 -85.050781 127.867188 -83.84375 126.984375 -82.21875 C 126.722656 -81.6875 125.335938 -78.265625 122.828125 -71.953125 L 94.71875 2.046875 L 92.125 2.046875 L 69.90625 -55.75 L 45.4375 2.046875 L 42.984375 2.046875 L 13.5 -71.171875 C 10.5 -78.535156 8.398438 -82.988281 7.203125 -84.53125 C 6.015625 -86.070312 4.007812 -86.972656 1.1875 -87.234375 L 1.1875 -89.6875 L 40.078125 -89.6875 L 40.078125 -87.234375 C 36.953125 -87.148438 34.867188 -86.675781 33.828125 -85.8125 C 32.796875 -84.957031 32.28125 -83.890625 32.28125 -82.609375 C 32.28125 -80.929688 33.359375 -77.378906 35.515625 -71.953125 L 53.109375 -28.4375 L 67.203125 -62.4375 L 63.5 -71.953125 C 61.46875 -77.160156 59.898438 -80.632812 58.796875 -82.375 C 57.691406 -84.113281 56.421875 -85.359375 54.984375 -86.109375 C 53.554688 -86.859375 51.453125 -87.234375 48.671875 -87.234375 L 48.671875 -89.6875 L 92.125 -89.6875 L 92.125 -87.234375 C 89.082031 -87.191406 86.898438 -86.953125 85.578125 -86.515625 C 84.648438 -86.203125 83.921875 -85.679688 83.390625 -84.953125 C 82.867188 -84.222656 82.609375 -83.394531 82.609375 -82.46875 C 82.609375 -81.457031 83.597656 -78.351562 85.578125 -73.15625 L 101.921875 -30.6875 L 116.53125 -69.109375 C 118.082031 -73.078125 119.03125 -75.789062 119.375 -77.25 C 119.726562 -78.707031 119.90625 -80.050781 119.90625 -81.28125 C 119.90625 -83.09375 119.285156 -84.515625 118.046875 -85.546875 C 116.816406 -86.585938 114.460938 -87.148438 110.984375 -87.234375 L 110.984375 -89.6875 Z M 134.265625 -89.6875 "/></g></g></g><g fill="#2d372b" fill-opacity="1"><g transform="translate(133.58494, 99.811213)"><g><path d="M 36.578125 -40.609375 L 36.578125 -15.734375 C 36.578125 -10.890625 36.875 -7.835938 37.46875 -6.578125 C 38.0625 -5.328125 39.117188 -4.328125 40.640625 -3.578125 C 42.160156 -2.828125 44.953125 -2.453125 49.015625 -2.453125 L 49.015625 0 L 3.4375 0 L 3.4375 -2.453125 C 7.582031 -2.453125 10.394531 -2.835938 11.875 -3.609375 C 13.351562 -4.378906 14.390625 -5.378906 14.984375 -6.609375 C 15.578125 -7.847656 15.875 -10.890625 15.875 -15.734375 L 15.875 -73.9375 C 15.875 -78.789062 15.578125 -81.84375 14.984375 -83.09375 C 14.390625 -84.351562 13.34375 -85.359375 11.84375 -86.109375 C 10.34375 -86.859375 7.539062 -87.234375 3.4375 -87.234375 L 3.4375 -89.6875 L 42.53125 -89.6875 C 55.40625 -89.6875 64.640625 -87.390625 70.234375 -82.796875 C 75.835938 -78.210938 78.640625 -72.484375 78.640625 -65.609375 C 78.640625 -59.785156 76.832031 -54.800781 73.21875 -50.65625 C 69.601562 -46.519531 64.617188 -43.703125 58.265625 -42.203125 C 53.992188 -41.140625 46.765625 -40.609375 36.578125 -40.609375 Z M 36.578125 -84.53125 L 36.578125 -45.765625 C 38.023438 -45.679688 39.125 -45.640625 39.875 -45.640625 C 45.257812 -45.640625 49.40625 -47.234375 52.3125 -50.421875 C 55.226562 -53.617188 56.6875 -58.570312 56.6875 -65.28125 C 56.6875 -71.9375 55.226562 -76.804688 52.3125 -79.890625 C 49.40625 -82.984375 45.0625 -84.53125 39.28125 -84.53125 Z M 36.578125 -84.53125 "/></g></g></g><path fill="#ffffff" d="M 24.59375 59.640625 L 174.152344 59.640625 L 174.152344 79.710938 L 24.59375 79.710938 L 24.59375 59.640625 " fill-opacity="1" fill-rule="nonzero"/><g fill="#2d372b" fill-opacity="1"><g transform="translate(30.309928, 73.409554)"><g><path d="M 3.03125 -2.875 L 3.203125 -1.671875 L 3.453125 -2.75 L 5.265625 -9.125 L 6.28125 -9.125 L 8.03125 -2.75 L 8.28125 -1.65625 L 8.484375 -2.875 L 9.890625 -9.125 L 11.109375 -9.125 L 8.890625 0 L 7.796875 0 L 5.921875 -6.640625 L 5.78125 -7.34375 L 5.625 -6.640625 L 3.6875 0 L 2.59375 0 L 0.375 -9.125 L 1.578125 -9.125 Z M 3.03125 -2.875 "/></g></g></g><g fill="#2d372b" fill-opacity="1"><g transform="translate(42.825772, 73.409554)"><g><path d="M 6.21875 -4.21875 L 2.265625 -4.21875 L 2.265625 -0.984375 L 6.859375 -0.984375 L 6.859375 0 L 1.0625 0 L 1.0625 -9.125 L 6.796875 -9.125 L 6.796875 -8.125 L 2.265625 -8.125 L 2.265625 -5.203125 L 6.21875 -5.203125 Z M 6.21875 -4.21875 "/></g></g></g><g fill="#2d372b" fill-opacity="1"><g transform="translate(51.249657, 73.409554)"><g><path d="M 2.265625 -0.984375 L 6.59375 -0.984375 L 6.59375 0 L 1.0625 0 L 1.0625 -9.125 L 2.265625 -9.125 Z M 2.265625 -0.984375 "/></g></g></g><g fill="#2d372b" fill-opacity="1"><g transform="translate(59.285024, 73.409554)"><g><path d="M 2.265625 -0.984375 L 6.59375 -0.984375 L 6.59375 0 L 1.0625 0 L 1.0625 -9.125 L 2.265625 -9.125 Z M 2.265625 -0.984375 "/></g></g></g><g fill="#2d372b" fill-opacity="1"><g transform="translate(67.320393, 73.409554)"><g><path d="M 2.34375 0 L 1.140625 0 L 1.140625 -9.125 L 2.34375 -9.125 Z M 2.34375 0 "/></g></g></g><g fill="#2d372b" fill-opacity="1"><g transform="translate(71.940573, 73.409554)"><g><path d="M 8.0625 0 L 6.859375 0 L 2.265625 -7.03125 L 2.265625 0 L 1.0625 0 L 1.0625 -9.125 L 2.265625 -9.125 L 6.875 -2.0625 L 6.875 -9.125 L 8.0625 -9.125 Z M 8.0625 0 "/></g></g></g><g fill="#2d372b" fill-opacity="1"><g transform="translate(82.21931, 73.409554)"><g><path d="M 7.796875 -1.203125 C 7.484375 -0.753906 7.050781 -0.421875 6.5 -0.203125 C 5.945312 0.015625 5.300781 0.125 4.5625 0.125 C 3.820312 0.125 3.160156 -0.046875 2.578125 -0.390625 C 2.003906 -0.742188 1.5625 -1.238281 1.25 -1.875 C 0.9375 -2.519531 0.773438 -3.269531 0.765625 -4.125 L 0.765625 -4.921875 C 0.765625 -6.296875 1.082031 -7.359375 1.71875 -8.109375 C 2.363281 -8.867188 3.265625 -9.25 4.421875 -9.25 C 5.378906 -9.25 6.144531 -9.003906 6.71875 -8.515625 C 7.300781 -8.023438 7.660156 -7.335938 7.796875 -6.453125 L 6.59375 -6.453125 C 6.363281 -7.648438 5.644531 -8.25 4.4375 -8.25 C 3.625 -8.25 3.007812 -7.96875 2.59375 -7.40625 C 2.1875 -6.84375 1.976562 -6.023438 1.96875 -4.953125 L 1.96875 -4.203125 C 1.96875 -3.179688 2.203125 -2.367188 2.671875 -1.765625 C 3.140625 -1.160156 3.773438 -0.859375 4.578125 -0.859375 C 5.023438 -0.859375 5.414062 -0.90625 5.75 -1 C 6.09375 -1.101562 6.375 -1.273438 6.59375 -1.515625 L 6.59375 -3.5625 L 4.484375 -3.5625 L 4.484375 -4.546875 L 7.796875 -4.546875 Z M 7.796875 -1.203125 "/></g></g></g><g fill="#2d372b" fill-opacity="1"><g transform="translate(92.090735, 73.409554)"><g><path d="M 7.359375 -8.125 L 4.421875 -8.125 L 4.421875 0 L 3.234375 0 L 3.234375 -8.125 L 0.3125 -8.125 L 0.3125 -9.125 L 7.359375 -9.125 Z M 7.359375 -8.125 "/></g></g></g><g fill="#2d372b" fill-opacity="1"><g transform="translate(100.878073, 73.409554)"><g><path d="M 8.078125 -4.265625 C 8.078125 -3.367188 7.925781 -2.585938 7.625 -1.921875 C 7.320312 -1.253906 6.894531 -0.742188 6.34375 -0.390625 C 5.789062 -0.046875 5.148438 0.125 4.421875 0.125 C 3.703125 0.125 3.0625 -0.0507812 2.5 -0.40625 C 1.945312 -0.757812 1.515625 -1.257812 1.203125 -1.90625 C 0.898438 -2.5625 0.742188 -3.320312 0.734375 -4.1875 L 0.734375 -4.84375 C 0.734375 -5.71875 0.882812 -6.488281 1.1875 -7.15625 C 1.5 -7.832031 1.929688 -8.347656 2.484375 -8.703125 C 3.046875 -9.066406 3.6875 -9.25 4.40625 -9.25 C 5.132812 -9.25 5.773438 -9.070312 6.328125 -8.71875 C 6.890625 -8.363281 7.320312 -7.847656 7.625 -7.171875 C 7.925781 -6.503906 8.078125 -5.726562 8.078125 -4.84375 Z M 6.875 -4.859375 C 6.875 -5.941406 6.65625 -6.769531 6.21875 -7.34375 C 5.789062 -7.925781 5.1875 -8.21875 4.40625 -8.21875 C 3.644531 -8.21875 3.046875 -7.925781 2.609375 -7.34375 C 2.171875 -6.769531 1.945312 -5.96875 1.9375 -4.9375 L 1.9375 -4.265625 C 1.9375 -3.210938 2.15625 -2.382812 2.59375 -1.78125 C 3.03125 -1.1875 3.640625 -0.890625 4.421875 -0.890625 C 5.191406 -0.890625 5.789062 -1.171875 6.21875 -1.734375 C 6.644531 -2.304688 6.863281 -3.117188 6.875 -4.171875 Z M 6.875 -4.859375 "/></g></g></g><g fill="#2d372b" fill-opacity="1"><g transform="translate(110.830961, 73.409554)"><g><path d="M 8.0625 0 L 6.859375 0 L 2.265625 -7.03125 L 2.265625 0 L 1.0625 0 L 1.0625 -9.125 L 2.265625 -9.125 L 6.875 -2.0625 L 6.875 -9.125 L 8.0625 -9.125 Z M 8.0625 0 "/></g></g></g><g fill="#2d372b" fill-opacity="1"><g transform="translate(121.109702, 73.409554)"><g/></g></g><g fill="#2d372b" fill-opacity="1"><g transform="translate(125.416564, 73.409554)"><g><path d="M 2.265625 -3.578125 L 2.265625 0 L 1.0625 0 L 1.0625 -9.125 L 4.421875 -9.125 C 5.421875 -9.125 6.203125 -8.867188 6.765625 -8.359375 C 7.328125 -7.847656 7.609375 -7.171875 7.609375 -6.328125 C 7.609375 -5.441406 7.332031 -4.757812 6.78125 -4.28125 C 6.226562 -3.8125 5.4375 -3.578125 4.40625 -3.578125 Z M 2.265625 -4.546875 L 4.421875 -4.546875 C 5.066406 -4.546875 5.5625 -4.695312 5.90625 -5 C 6.25 -5.3125 6.421875 -5.75 6.421875 -6.3125 C 6.421875 -6.863281 6.25 -7.300781 5.90625 -7.625 C 5.5625 -7.945312 5.085938 -8.113281 4.484375 -8.125 L 2.265625 -8.125 Z M 2.265625 -4.546875 "/></g></g></g><g fill="#2d372b" fill-opacity="1"><g transform="translate(134.642549, 73.409554)"><g><path d="M 2.34375 0 L 1.140625 0 L 1.140625 -9.125 L 2.34375 -9.125 Z M 2.34375 0 "/></g></g></g><g fill="#2d372b" fill-opacity="1"><g transform="translate(139.262731, 73.409554)"><g><path d="M 8.0625 0 L 6.859375 0 L 2.265625 -7.03125 L 2.265625 0 L 1.0625 0 L 1.0625 -9.125 L 2.265625 -9.125 L 6.875 -2.0625 L 6.875 -9.125 L 8.0625 -9.125 Z M 8.0625 0 "/></g></g></g><g fill="#2d372b" fill-opacity="1"><g transform="translate(149.541472, 73.409554)"><g><path d="M 8.0625 0 L 6.859375 0 L 6.859375 -4.21875 L 2.265625 -4.21875 L 2.265625 0 L 1.0625 0 L 1.0625 -9.125 L 2.265625 -9.125 L 2.265625 -5.203125 L 6.859375 -5.203125 L 6.859375 -9.125 L 8.0625 -9.125 Z M 8.0625 0 "/></g></g></g><g fill="#2d372b" fill-opacity="1"><g transform="translate(159.820213, 73.409554)"><g><path d="M 8.078125 -4.265625 C 8.078125 -3.367188 7.925781 -2.585938 7.625 -1.921875 C 7.320312 -1.253906 6.894531 -0.742188 6.34375 -0.390625 C 5.789062 -0.046875 5.148438 0.125 4.421875 0.125 C 3.703125 0.125 3.0625 -0.0507812 2.5 -0.40625 C 1.945312 -0.757812 1.515625 -1.257812 1.203125 -1.90625 C 0.898438 -2.5625 0.742188 -3.320312 0.734375 -4.1875 L 0.734375 -4.84375 C 0.734375 -5.71875 0.882812 -6.488281 1.1875 -7.15625 C 1.5 -7.832031 1.929688 -8.347656 2.484375 -8.703125 C 3.046875 -9.066406 3.6875 -9.25 4.40625 -9.25 C 5.132812 -9.25 5.773438 -9.070312 6.328125 -8.71875 C 6.890625 -8.363281 7.320312 -7.847656 7.625 -7.171875 C 7.925781 -6.503906 8.078125 -5.726562 8.078125 -4.84375 Z M 6.875 -4.859375 C 6.875 -5.941406 6.65625 -6.769531 6.21875 -7.34375 C 5.789062 -7.925781 5.1875 -8.21875 4.40625 -8.21875 C 3.644531 -8.21875 3.046875 -7.925781 2.609375 -7.34375 C 2.171875 -6.769531 1.945312 -5.96875 1.9375 -4.9375 L 1.9375 -4.265625 C 1.9375 -3.210938 2.15625 -2.382812 2.59375 -1.78125 C 3.03125 -1.1875 3.640625 -0.890625 4.421875 -0.890625 C 5.191406 -0.890625 5.789062 -1.171875 6.21875 -1.734375 C 6.644531 -2.304688 6.863281 -3.117188 6.875 -4.171875 Z M 6.875 -4.859375 "/></g></g></g></svg>